<svg width="39" height="39" viewBox="0 0 39 39" fill="none" xmlns="http://www.w3.org/2000/svg">
<path d="M19.5004 9.74999V9.80399M9.80402 19.5004H9.75002M26.3948 12.606L26.3567 12.6442M12.6444 26.3564L12.6063 26.3946M12.6444 12.6436L12.6063 12.6054M19.5 35.1C10.8844 35.1 3.90002 28.1156 3.90002 19.5C3.90002 10.8844 10.8844 3.89999 19.5 3.89999C28.1157 3.89999 35.1 10.8844 35.1 19.5C35.1 22.1228 32.6765 23.868 30.0537 23.868H29.0355C28.5097 23.868 27.9912 23.9904 27.521 24.2255C25.8481 25.0619 25.1701 27.0961 26.0065 28.7689C26.2416 29.2392 26.364 29.7577 26.364 30.2834V30.5908C26.364 32.3793 25.3604 34.0729 23.6356 34.5459C22.3185 34.9071 20.9318 35.1 19.5 35.1Z" stroke="white" stroke-width="3" stroke-linecap="round" stroke-linejoin="round"/>
</svg>
