<svg width="382" height="548" viewBox="0 0 382 548" fill="none" xmlns="http://www.w3.org/2000/svg">
<path d="M39.6647 175.522C42.506 175.349 46.291 175.082 51.0196 174.722C55.7482 174.362 60.4717 173.95 65.19 173.485C70.3278 172.979 75.2506 172.442 79.9586 171.872C84.7715 171.292 88.174 170.904 90.1662 170.708C105.474 169.201 117.135 170.964 125.147 175.998C133.264 181.021 137.772 188.094 138.67 197.216C139.042 200.99 138.648 205.052 137.488 209.401C136.423 213.635 134.231 217.715 130.912 221.641C127.688 225.452 122.986 228.774 116.807 231.606C110.733 234.427 102.873 236.313 93.2264 237.263L76.8696 238.873L76.5598 235.728L91.3439 234.272C97.1107 233.704 101.323 231.86 103.98 228.74C106.742 225.61 108.42 221.686 109.014 216.969C109.713 212.242 109.799 207.205 109.273 201.858C108.292 191.897 106.248 184.581 103.141 179.911C100.035 175.241 95.336 173.216 89.0449 173.836C85.1654 174.218 82.7368 175.357 81.7589 177.253C80.8859 179.139 80.7179 182.808 81.2548 188.26L88.8129 265.011C89.2259 269.205 89.955 272.31 91.0003 274.324C92.0353 276.234 93.842 277.379 96.4204 277.76C98.9988 278.142 102.652 278.152 107.381 277.793L107.722 281.253C104.251 281.489 99.7848 281.823 94.3221 282.255C88.8595 282.687 83.14 283.197 77.1634 283.786C72.4451 284.25 67.7844 284.762 63.1812 285.321C58.6829 285.87 54.4992 286.388 50.63 286.875L50.3203 283.729C53.55 283.199 55.9203 282.543 57.4311 281.759C59.0468 280.964 60.0238 279.598 60.3622 277.659C60.8055 275.709 60.8413 272.847 60.4696 269.073L52.7876 191.063C52.4056 187.184 51.8122 184.384 51.0076 182.663C50.2975 180.827 49.0726 179.678 47.3331 179.214C45.688 178.635 43.2351 178.453 39.9744 178.668L39.6647 175.522Z" fill="#021678"/>
<path d="M157.661 228.835C165.55 229.297 172.356 231.121 178.079 234.306C183.914 237.392 188.277 242.186 191.167 248.688C194.163 255.196 195.352 263.709 194.736 274.227C194.119 284.745 191.943 293.06 188.207 299.174C184.577 305.293 179.681 309.597 173.519 312.085C167.469 314.475 160.499 315.438 152.611 314.976C144.828 314.519 138.019 312.748 132.184 309.662C126.461 306.477 122.101 301.63 119.105 295.122C116.11 288.614 114.92 280.101 115.537 269.583C116.153 259.066 118.329 250.75 122.065 244.637C125.801 238.523 130.694 234.272 136.744 231.883C142.906 229.394 149.878 228.378 157.661 228.835ZM157.476 231.99C153.795 231.774 150.507 234.748 147.613 240.91C144.83 246.974 143.026 257.053 142.199 271.147C141.373 285.241 141.984 295.514 144.033 301.966C146.194 308.32 149.115 311.604 152.796 311.82C156.582 312.042 159.867 309.121 162.65 303.058C165.439 296.889 167.247 286.758 168.073 272.664C168.899 258.57 168.285 248.349 166.23 242.002C164.181 235.549 161.263 232.212 157.476 231.99Z" fill="#021678"/>
<path d="M250.159 217.613C253.74 217.525 256.603 218.246 258.749 219.774C260.891 221.197 262.466 223.108 263.474 225.507C264.478 227.801 265.009 230.107 265.066 232.424C265.172 236.742 263.993 240.249 261.53 242.944C259.172 245.637 255.992 247.032 251.989 247.13C247.776 247.234 244.541 246.365 242.282 244.523C240.021 242.576 238.851 239.97 238.771 236.705C238.691 233.44 239.309 230.737 240.627 228.597C242.05 226.454 243.797 224.62 245.867 223.093C244.282 222.922 242.76 223.17 241.301 223.838C239.626 224.3 238.065 225.129 236.619 226.324C235.173 227.519 233.943 228.919 232.928 230.525C231.914 232.13 231.114 233.889 230.528 235.8C230.045 237.604 229.827 239.453 229.874 241.349L230.966 285.903C231.09 290.958 232.28 294.354 234.536 296.091C236.897 297.824 240.553 298.631 245.503 298.509L245.584 301.827C243.159 301.781 239.576 301.764 234.833 301.774C230.088 301.68 225.188 301.695 220.132 301.819C215.603 301.93 211.024 302.147 206.395 302.472C201.869 302.688 198.501 302.876 196.291 303.036L196.21 299.718C199.686 299.633 202.089 298.783 203.419 297.17C204.855 295.554 205.519 292.534 205.41 288.11L204.186 238.185C204.07 233.445 203.3 229.986 201.877 227.808C200.451 225.524 197.947 224.427 194.366 224.514L194.285 221.197C197.663 221.43 200.932 221.508 204.092 221.43C208.831 221.314 213.304 221.046 217.509 220.627C221.817 220.1 225.753 219.424 229.316 218.599L229.633 231.554C230.83 228.784 232.405 226.374 234.357 224.324C236.414 222.271 238.747 220.686 241.354 219.568C244.064 218.342 246.999 217.691 250.159 217.613Z" fill="#021678"/>
<path d="M296.349 225.009L296.98 250.761L314.043 250.343L314.121 253.503L297.058 253.921L298.642 318.539C298.707 321.172 299.228 323.057 300.204 324.192C301.178 325.222 302.612 325.714 304.508 325.667C306.088 325.628 307.708 325.062 309.367 323.967C311.132 322.87 312.721 321.039 314.133 318.475L316.7 319.993C314.805 324.361 312.099 327.905 308.582 330.626C305.171 333.344 300.621 334.773 294.934 334.913C291.458 334.998 288.339 334.6 285.577 333.72C282.924 332.942 280.679 331.679 278.845 329.933C276.471 327.672 274.874 324.866 274.054 321.513C273.337 318.053 272.911 313.584 272.777 308.107L271.463 254.549L258.824 254.859L258.747 251.699L271.386 251.389L270.902 231.64C275.852 231.519 280.37 230.934 284.454 229.885C288.644 228.834 292.609 227.208 296.349 225.009Z" fill="#021678"/>
<path d="M80.2188 325.115C84.1845 324.565 87.6486 324.617 90.6109 325.27C93.6632 325.805 96.3487 326.762 98.6673 328.143C100.392 329.074 101.928 330.563 103.275 332.61C104.712 334.538 105.626 336.911 106.017 339.728C106.436 342.755 105.664 345.627 103.701 348.346C101.842 351.05 99.1382 352.648 95.5899 353.139C91.7285 353.675 88.4531 353.065 85.7635 351.31C83.0595 349.451 81.4471 346.643 80.9265 342.886C80.536 340.069 81.0166 337.396 82.3682 334.869C83.7053 332.237 85.9786 330.22 89.188 328.818C88.8026 328.34 88.1708 328.002 87.2925 327.804C86.3997 327.503 85.275 327.446 83.9183 327.634C82.0398 327.894 80.5178 328.424 79.3522 329.224C78.1867 330.023 77.266 331.055 76.5902 332.319C75.7346 333.82 75.2194 335.859 75.0447 338.436C74.9744 340.999 75.2935 344.837 76.0022 349.951L78.4536 367.64L95.2036 365.319L95.6374 368.45L78.8874 370.771L87.4347 432.448C88.1434 437.562 89.873 440.832 92.6235 442.259C95.3596 443.582 98.9192 443.94 103.302 443.332L103.758 446.62C100.926 446.906 96.9456 447.351 91.8174 447.955C86.7791 448.441 81.4422 449.074 75.8067 449.855C71.7366 450.419 67.7332 451.08 63.7964 451.839C59.8451 452.492 56.8852 453.009 54.9168 453.388L54.4613 450.101C57.9052 449.624 60.197 448.508 61.3368 446.755C62.5809 444.987 62.8993 441.911 62.2919 437.528L53.5276 374.285L43.5089 375.674L43.0751 372.543L53.0937 371.154C52.2405 364.997 51.8449 359.84 51.907 355.683C52.0591 351.407 52.6704 347.759 53.7409 344.739C54.9014 341.6 56.6271 338.702 58.9179 336.044C60.9102 333.534 63.7879 331.274 67.5512 329.264C71.4043 327.134 75.6269 325.751 80.2188 325.115Z" fill="#021678"/>
<path d="M150.338 364.267C158.218 364.854 164.994 366.785 170.667 370.061C176.452 373.239 180.739 378.101 183.526 384.648C186.419 391.202 187.474 399.733 186.691 410.239C185.908 420.746 183.601 429.026 179.769 435.08C176.042 441.141 171.079 445.367 164.879 447.758C158.792 450.052 151.808 450.905 143.928 450.318C136.153 449.739 129.373 447.86 123.587 444.682C117.915 441.407 113.632 436.492 110.74 429.938C107.847 423.383 106.792 414.852 107.575 404.346C108.358 393.839 110.665 385.559 114.497 379.505C118.328 373.452 123.288 369.278 129.375 366.985C135.575 364.594 142.563 363.688 150.338 364.267ZM150.103 367.419C146.426 367.145 143.092 370.067 140.1 376.183C137.222 382.202 135.258 392.251 134.21 406.33C133.161 420.409 133.61 430.69 135.557 437.175C137.617 443.561 140.485 446.892 144.163 447.166C147.945 447.447 151.275 444.579 154.154 438.56C157.04 432.436 159.007 422.334 160.056 408.255C161.105 394.176 160.652 383.947 158.697 377.568C156.75 371.084 153.886 367.701 150.103 367.419Z" fill="#021678"/>
<path d="M212.385 317.195L227.332 425.052C227.939 429.435 229.03 432.316 230.603 433.693C232.281 435.056 234.842 435.499 238.286 435.022L238.742 438.309C236.744 438.479 233.704 438.794 229.619 439.254C225.52 439.609 221.331 440.084 217.052 440.676C212.878 441.255 208.613 441.952 204.259 442.768C199.995 443.466 196.774 444.018 194.597 444.427L194.141 441.139C197.585 440.662 199.877 439.547 201.017 437.793C202.261 436.025 202.579 432.95 201.972 428.567L189.607 339.338C188.97 334.746 187.822 331.448 186.161 329.444C184.591 327.322 181.979 326.514 178.327 327.02L177.871 323.733C181.254 323.583 184.511 323.291 187.642 322.857C192.442 322.192 196.908 321.414 201.039 320.522C205.156 319.526 208.938 318.417 212.385 317.195Z" fill="#021678"/>
<path d="M261.515 329.542C266.467 329.6 270.299 330.752 273.012 332.997C275.83 335.243 277.215 338.473 277.165 342.687C277.115 346.901 275.655 350.097 272.784 352.276C270.019 354.456 266.161 355.517 261.209 355.458C256.258 355.4 252.373 354.248 249.554 352.002C246.841 349.757 245.51 346.528 245.559 342.314C245.609 338.099 247.017 334.902 249.782 332.722C252.653 330.544 256.564 329.483 261.515 329.542ZM274.955 369.213L274.142 438.113C274.09 442.537 274.739 445.548 276.09 447.144C277.546 448.742 280.013 449.561 283.489 449.602L283.45 452.921C281.344 452.791 278.238 452.649 274.13 452.495C270.024 452.236 265.864 452.081 261.65 452.031C257.436 451.982 253.115 452.036 248.688 452.195C244.367 452.249 241.1 452.316 238.886 452.395L238.926 449.076C242.402 449.117 244.835 448.356 246.223 446.792C247.716 445.229 248.489 442.235 248.541 437.81L249.131 387.874C249.187 383.133 248.543 379.648 247.2 377.42C245.857 375.086 243.395 373.898 239.813 373.856L239.853 370.537C243.22 370.893 246.484 371.089 249.645 371.127C254.386 371.183 258.865 371.077 263.083 370.811C267.407 370.441 271.365 369.908 274.955 369.213Z" fill="#021678"/>
<path d="M334.016 364.063C341.917 364.156 348.801 365.66 354.667 368.574C360.64 371.384 365.222 375.969 368.413 382.328C371.71 388.689 373.296 397.137 373.172 407.672C373.047 418.207 371.262 426.616 367.816 432.897C364.476 439.179 359.786 443.707 353.748 446.481C347.816 449.151 340.899 450.439 332.998 450.345C325.202 450.253 318.317 448.802 312.345 445.992C306.478 443.078 301.897 438.441 298.6 432.08C295.304 425.719 293.718 417.271 293.842 406.736C293.966 396.201 295.752 387.792 299.197 381.511C302.643 375.23 307.332 370.754 313.264 368.085C319.303 365.311 326.22 363.971 334.016 364.063ZM333.979 367.223C330.291 367.18 327.146 370.303 324.543 376.595C322.047 382.782 320.715 392.934 320.549 407.051C320.382 421.168 321.473 431.401 323.821 437.751C326.276 443.997 329.348 447.141 333.035 447.185C336.828 447.23 339.972 444.158 342.469 437.971C344.966 431.679 346.298 421.474 346.465 407.357C346.632 393.24 345.54 383.059 343.19 376.815C340.842 370.465 337.771 367.268 333.979 367.223Z" fill="#021678"/>
<path d="M298.68 52.7163C298.725 52.3528 299.275 52.3528 299.32 52.7163L299.698 55.7657C300.185 59.7033 303.425 62.8078 307.534 63.275L310.715 63.6368C311.095 63.68 311.095 64.2074 310.715 64.2506L307.534 64.6124C303.425 65.0796 300.185 68.1841 299.698 72.1217L299.32 75.171C299.275 75.5346 298.725 75.5346 298.68 75.171L298.302 72.1217C297.815 68.1841 294.575 65.0796 290.466 64.6124L287.284 64.2506C286.905 64.2074 286.905 63.68 287.284 63.6368L290.466 63.275C294.575 62.8078 297.815 59.7033 298.302 55.7657L298.68 52.7163Z" fill="#F2994A"/>
<path d="M328.68 52.2726C328.725 51.9091 329.275 51.9091 329.32 52.2726L329.698 55.322C330.185 59.2596 333.425 62.3641 337.534 62.8313L340.715 63.1931C341.095 63.2363 341.095 63.7637 340.715 63.8069L337.534 64.1687C333.425 64.6359 330.185 67.7404 329.698 71.678L329.32 74.7273C329.275 75.0909 328.725 75.0909 328.68 74.7273L328.302 71.678C327.815 67.7404 324.575 64.6359 320.466 64.1687L317.284 63.8069C316.905 63.7637 316.905 63.2363 317.284 63.1931L320.466 62.8313C324.575 62.3641 327.815 59.2596 328.302 55.322L328.68 52.2726Z" fill="#F2994A"/>
<path d="M359.193 52.2726C359.236 51.9091 359.764 51.9091 359.807 52.2726L360.169 55.322C360.636 59.2596 363.74 62.3641 367.678 62.8313L370.727 63.1931C371.091 63.2363 371.091 63.7637 370.727 63.8069L367.678 64.1687C363.74 64.6359 360.636 67.7404 360.169 71.678L359.807 74.7273C359.764 75.0909 359.236 75.0909 359.193 74.7273L358.831 71.678C358.364 67.7404 355.26 64.6359 351.322 64.1687L348.273 63.8069C347.909 63.7637 347.909 63.2363 348.273 63.1931L351.322 62.8313C355.26 62.3641 358.364 59.2596 358.831 55.322L359.193 52.2726Z" fill="#F2994A"/>
<path fill-rule="evenodd" clip-rule="evenodd" d="M19.98 514.277L6.00869 510.495L10.7901 492.626L24.7652 496.394L21.0299 482.379L38.8649 477.616L42.6138 491.627L52.8499 481.394L65.9034 494.501L55.6774 504.744L69.6488 508.526L64.8673 526.395L50.8923 522.628L54.6276 536.643L36.7926 541.405L33.0437 527.394L22.8074 537.627L9.75403 524.52L19.98 514.277Z" fill="#F2994A"/>
<path d="M39.5 42L39.5047 66.4759L48.8758 43.8649L39.5136 66.4797L56.8241 49.1759L39.5204 66.4864L62.135 57.1242L39.5241 66.4953L64 66.5L39.5241 66.5047L62.135 75.8758L39.5204 66.5136L56.8241 83.8241L39.5136 66.5204L48.8758 89.135L39.5047 66.5241L39.5 91L39.4953 66.5241L30.1242 89.135L39.4864 66.5204L22.1759 83.8241L39.4797 66.5136L16.8649 75.8758L39.4759 66.5047L15 66.5L39.4759 66.4953L16.8649 57.1242L39.4797 66.4864L22.1759 49.1759L39.4864 66.4797L30.1242 43.8649L39.4953 66.4759L39.5 42Z" fill="#F0C3D2" stroke="#951E66" stroke-width="0.280615"/>
<path d="M18.8377 1.02908L20.1159 10.5594L29.7045 9.8377L20.1742 11.1159L20.8959 20.7045L19.6177 11.1741L10.0291 11.8959L19.5594 10.6176L18.8377 1.02908Z" fill="#021678"/>
<path d="M26.819 12.8809L27.6981 19.4351L34.2923 18.9388L27.7381 19.8178L28.2345 26.412L27.3554 19.8579L20.7612 20.3542L27.3154 19.4751L26.819 12.8809Z" fill="#021678"/>
<path d="M334.115 221.614L339.677 236.728L355.088 232.054L339.975 237.616L344.648 253.028L339.086 237.914L323.675 242.588L338.788 237.026L334.115 221.614Z" fill="#021678"/>
<rect x="9" y="139.547" width="154.382" height="48.4776" rx="6.71228" transform="rotate(-9.14899 9 139.547)" fill="#F2994A"/>
<path d="M41.5147 147.593C43.068 147.331 44.3785 147.353 45.4462 147.657C46.5334 147.934 47.5169 148.313 48.3965 148.794C48.9266 149.068 49.2875 149.056 49.4793 148.757C49.6907 148.432 49.7583 147.755 49.6821 146.727L50.4941 146.59C50.6015 147.516 50.7563 148.652 50.9584 149.997C51.1606 151.342 51.4459 153.11 51.8141 155.298L51.0022 155.435C50.7219 154.345 50.4066 153.405 50.0562 152.617C49.7293 151.825 49.3241 151.143 48.8406 150.571C48.3571 149.999 47.7208 149.525 46.9316 149.15C46.315 148.794 45.6457 148.555 44.9236 148.435C44.221 148.287 43.5168 148.272 42.8107 148.391C41.5163 148.609 40.4833 149.158 39.7117 150.038C38.9597 150.891 38.4121 151.951 38.0687 153.219C37.745 154.459 37.5863 155.817 37.5925 157.292C37.6183 158.74 37.7519 160.181 37.9935 161.617C38.239 163.076 38.6002 164.504 39.0771 165.9C39.5501 167.272 40.1425 168.492 40.8543 169.558C41.5896 170.62 42.4639 171.429 43.477 171.984C44.4862 172.516 45.638 172.673 46.9324 172.456C47.6149 172.341 48.2659 172.11 48.8852 171.764C49.5282 171.414 50.0826 170.97 50.5487 170.431C51.4655 169.551 52.0053 168.516 52.1682 167.327C52.3508 166.111 52.37 164.571 52.2258 162.707L53.0378 162.571C53.4219 164.854 53.7445 166.699 54.0057 168.107C54.2628 169.492 54.4942 170.651 54.6996 171.584L53.8877 171.721C53.6233 170.725 53.3516 170.117 53.0727 169.898C52.8173 169.675 52.4585 169.771 51.9961 170.188C51.2283 170.946 50.3897 171.644 49.4805 172.281C48.5908 172.891 47.381 173.324 45.8512 173.581C43.2859 174.013 40.9414 173.887 38.8177 173.204C36.7176 172.517 34.9658 171.311 33.5624 169.587C32.1826 167.859 31.267 165.653 30.8155 162.97C30.372 160.334 30.537 157.935 31.3105 155.771C32.084 153.608 33.3426 151.811 35.0864 150.381C36.8537 148.946 38.9964 148.016 41.5147 147.593ZM60.4313 142.232L62.4153 154.023C62.8215 152.841 63.4694 151.946 64.3591 151.336C65.2724 150.723 66.3644 150.309 67.6353 150.095C68.6709 149.921 69.5164 149.912 70.1718 150.068C70.8508 150.22 71.3888 150.468 71.7856 150.813C72.2374 151.196 72.605 151.727 72.8886 152.406C73.1721 153.084 73.4149 154.023 73.6168 155.224L75.2207 164.755C75.387 165.744 75.6528 166.389 76.0182 166.69C76.4071 166.988 76.9898 167.071 77.7665 166.941L77.8912 167.682C77.4401 167.734 76.7419 167.827 75.7965 167.962C74.8707 168.069 73.9606 168.198 73.0663 168.349C72.1249 168.507 71.211 168.685 70.3246 168.883C69.4342 169.057 68.7557 169.195 68.2889 169.298L68.1642 168.556C68.8232 168.446 69.2524 168.192 69.4519 167.795C69.6514 167.399 69.668 166.706 69.5016 165.718L67.6127 154.491C67.5216 153.95 67.3856 153.501 67.2045 153.144C67.0195 152.764 66.77 152.504 66.4559 152.363C66.1614 152.195 65.7552 152.154 65.2374 152.241C64.6961 152.332 64.2139 152.558 63.7907 152.92C63.3871 153.254 63.0877 153.704 62.8924 154.269C62.6931 154.811 62.6489 155.411 62.7598 156.07L64.524 166.555C64.6903 167.544 64.9326 168.193 65.2509 168.502C65.5927 168.808 66.0813 168.907 66.7168 168.8L66.8415 169.541C66.4139 169.589 65.7745 169.672 64.9233 169.792C64.0681 169.887 63.1934 170.01 62.299 170.16C61.3576 170.319 60.3966 170.505 59.4161 170.718C58.4551 170.904 57.7295 171.05 57.2392 171.157L57.1145 170.416C57.8911 170.285 58.4027 170.017 58.6493 169.613C58.9194 169.204 58.9713 168.506 58.8049 167.517L55.4251 147.43C55.2469 146.371 54.9632 145.62 54.5741 145.178C54.2046 144.707 53.6079 144.542 52.7842 144.68L52.6595 143.939C53.4245 143.883 54.16 143.795 54.866 143.676C55.9487 143.494 56.9547 143.289 57.8842 143.06C58.8098 142.807 59.6588 142.531 60.4313 142.232ZM88.4721 146.589C89.2723 146.454 89.9375 146.524 90.4676 146.798C90.9937 147.048 91.4082 147.426 91.7111 147.932C92.01 148.414 92.2031 148.914 92.2902 149.432C92.4526 150.397 92.3008 151.221 91.835 151.904C91.3927 152.584 90.7243 152.999 89.83 153.149C88.8886 153.308 88.1352 153.216 87.5696 152.876C87.0002 152.512 86.654 151.965 86.5313 151.236C86.4085 150.506 86.4605 149.88 86.6873 149.358C86.9376 148.832 87.2703 148.364 87.6856 147.956C87.3247 147.968 86.9913 148.073 86.6856 148.269C86.3249 148.427 86.0015 148.663 85.7156 148.977C85.4297 149.291 85.1987 149.645 85.0228 150.037C84.8468 150.43 84.7239 150.85 84.654 151.297C84.6036 151.717 84.6141 152.139 84.6854 152.563L86.3604 162.518C86.5505 163.648 86.9263 164.371 87.4879 164.688C88.073 165.001 88.9186 165.064 90.0248 164.878L90.1495 165.62C89.6042 165.687 88.8001 165.798 87.737 165.953C86.67 166.084 85.5717 166.245 84.442 166.435C83.43 166.605 82.4102 166.801 81.3826 167.022C80.3745 167.216 79.6254 167.366 79.1351 167.473L79.0103 166.731C79.787 166.601 80.2986 166.333 80.5452 165.929C80.8153 165.52 80.8671 164.822 80.7008 163.833L78.8238 152.678C78.6456 151.619 78.3619 150.868 77.9728 150.425C77.5797 149.959 76.9831 149.793 76.1829 149.927L76.0582 149.186C76.8232 149.13 77.5587 149.043 78.2647 148.924C79.3238 148.746 80.3181 148.542 81.2476 148.313C82.1967 148.056 83.0575 147.778 83.83 147.479L84.3171 150.374C84.4965 149.714 84.7722 149.124 85.1442 148.601C85.5396 148.075 86.0117 147.644 86.5605 147.31C87.1289 146.948 87.7661 146.708 88.4721 146.589ZM95.9588 136.363C97.065 136.177 97.9656 136.279 98.6607 136.671C99.3793 137.058 99.8178 137.722 99.9762 138.664C100.135 139.605 99.9376 140.376 99.3853 140.977C98.8566 141.575 98.0391 141.966 96.933 142.152C95.8268 142.339 94.9145 142.238 94.1959 141.851C93.5008 141.459 93.074 140.793 92.9156 139.852C92.7572 138.91 92.9424 138.141 93.4712 137.544C94.0235 136.943 94.8527 136.549 95.9588 136.363ZM100.55 144.666L103.14 160.058C103.307 161.046 103.572 161.691 103.938 161.993C104.327 162.29 104.909 162.374 105.686 162.243L105.811 162.984C105.336 163.04 104.638 163.133 103.716 163.264C102.79 163.372 101.857 163.504 100.915 163.663C99.974 163.821 99.013 164.007 98.0324 164.221C97.0715 164.406 96.3458 164.553 95.8555 164.659L95.7308 163.918C96.5075 163.787 97.0191 163.52 97.2656 163.115C97.5357 162.707 97.5876 162.008 97.4213 161.02L95.5442 149.864C95.366 148.805 95.0824 148.054 94.6933 147.612C94.3002 147.145 93.7036 146.979 92.9034 147.114L92.7786 146.373C93.5436 146.317 94.2792 146.229 94.9852 146.11C96.0443 145.932 97.0386 145.729 97.9681 145.5C98.9172 145.243 99.778 144.965 100.55 144.666ZM111.273 142.753C112.309 142.578 113.223 142.546 114.016 142.654C114.808 142.763 115.399 142.893 115.788 143.046C116.698 143.425 117.137 143.012 117.104 141.808L117.845 141.683C117.913 142.373 118.016 143.203 118.155 144.172C118.29 145.117 118.492 146.39 118.762 147.991L118.02 148.115C117.779 147.26 117.423 146.437 116.951 145.645C116.503 144.849 115.927 144.232 115.224 143.794C114.517 143.332 113.669 143.184 112.681 143.351C112.045 143.458 111.536 143.737 111.152 144.189C110.792 144.637 110.667 145.19 110.778 145.849C110.897 146.555 111.213 147.143 111.728 147.613C112.243 148.083 112.871 148.51 113.613 148.893C114.379 149.273 115.151 149.687 115.928 150.137C116.776 150.575 117.544 151.039 118.231 151.529C118.938 151.99 119.526 152.533 119.994 153.156C120.481 153.752 120.804 154.52 120.962 155.462C121.141 156.521 120.979 157.504 120.479 158.411C119.978 159.318 119.247 160.082 118.287 160.704C117.327 161.325 116.211 161.743 114.94 161.957C114.163 162.087 113.467 162.12 112.851 162.054C112.262 162.008 111.76 161.899 111.344 161.727C110.963 161.621 110.622 161.534 110.319 161.463C110.041 161.389 109.768 161.351 109.501 161.347C109.262 161.363 109.08 161.503 108.954 161.766C108.829 162.029 108.751 162.357 108.721 162.749L107.979 162.874C107.9 162.113 107.78 161.189 107.622 160.102C107.463 159.016 107.233 157.578 106.932 155.789L107.674 155.665C108.029 156.912 108.476 157.986 109.015 158.888C109.577 159.785 110.235 160.461 110.989 160.915C111.739 161.345 112.562 161.485 113.456 161.335C113.856 161.268 114.209 161.136 114.515 160.939C114.84 160.715 115.081 160.42 115.237 160.055C115.417 159.686 115.464 159.243 115.376 158.725C115.202 157.689 114.728 156.886 113.954 156.314C113.177 155.719 112.236 155.091 111.132 154.429C110.272 153.921 109.461 153.416 108.699 152.915C107.961 152.41 107.319 151.828 106.772 151.17C106.249 150.507 105.911 149.717 105.756 148.799C105.578 147.74 105.722 146.797 106.187 145.968C106.673 145.112 107.366 144.414 108.268 143.875C109.165 143.313 110.167 142.939 111.273 142.753ZM122.846 133.908C123.435 133.809 123.972 133.839 124.459 134C124.965 134.132 125.382 134.377 125.708 134.733C126.022 135.019 126.297 135.433 126.534 135.974C126.794 136.511 126.977 137.097 127.084 137.733C127.282 138.909 127.162 140.067 126.724 141.206C126.283 142.321 125.476 143.279 124.304 144.081L123.879 143.499C124.467 143.11 124.963 142.603 125.366 141.979C125.789 141.327 126.007 140.685 126.022 140.053C126.111 139.433 126.04 138.864 125.808 138.347C125.35 139.077 124.627 139.526 123.638 139.692C122.767 139.838 122.02 139.71 121.395 139.307C120.767 138.88 120.375 138.208 120.221 137.29C120.078 136.443 120.246 135.713 120.724 135.1C121.221 134.46 121.928 134.062 122.846 133.908ZM136.371 138.53C137.407 138.355 138.321 138.323 139.113 138.431C139.906 138.54 140.497 138.67 140.886 138.823C141.796 139.202 142.235 138.789 142.202 137.585L142.943 137.46C143.011 138.151 143.114 138.98 143.253 139.949C143.388 140.894 143.59 142.167 143.859 143.768L143.118 143.892C142.877 143.037 142.521 142.214 142.049 141.422C141.6 140.626 141.025 140.009 140.322 139.571C139.615 139.109 138.767 138.961 137.779 139.128C137.143 139.235 136.634 139.514 136.25 139.966C135.889 140.414 135.765 140.967 135.876 141.626C135.994 142.332 136.311 142.92 136.826 143.39C137.341 143.86 137.969 144.287 138.711 144.67C139.477 145.05 140.248 145.464 141.026 145.914C141.874 146.352 142.642 146.816 143.329 147.306C144.036 147.767 144.624 148.31 145.092 148.933C145.579 149.529 145.902 150.297 146.06 151.239C146.239 152.298 146.077 153.281 145.576 154.188C145.076 155.095 144.345 155.859 143.385 156.481C142.424 157.102 141.309 157.52 140.038 157.734C139.261 157.864 138.565 157.897 137.949 157.831C137.36 157.785 136.858 157.676 136.442 157.504C136.061 157.398 135.719 157.311 135.417 157.24C135.139 157.166 134.866 157.128 134.599 157.124C134.36 157.14 134.177 157.28 134.052 157.543C133.927 157.806 133.849 158.134 133.818 158.526L133.077 158.651C132.997 157.89 132.878 156.966 132.72 155.879C132.561 154.793 132.331 153.355 132.03 151.566L132.772 151.442C133.127 152.689 133.574 153.763 134.113 154.665C134.675 155.562 135.333 156.238 136.087 156.692C136.837 157.123 137.66 157.262 138.554 157.112C138.954 157.045 139.307 156.913 139.613 156.716C139.938 156.492 140.179 156.197 140.335 155.832C140.515 155.463 140.561 155.02 140.474 154.502C140.3 153.466 139.826 152.663 139.052 152.091C138.274 151.496 137.334 150.868 136.23 150.206C135.37 149.698 134.559 149.193 133.797 148.692C133.059 148.187 132.417 147.605 131.87 146.947C131.347 146.284 131.009 145.494 130.854 144.576C130.676 143.517 130.82 142.574 131.285 141.745C131.77 140.889 132.464 140.191 133.365 139.652C134.263 139.09 135.265 138.716 136.371 138.53Z" fill="#0C1FD1"/>
</svg>
