<svg width="68" height="68" viewBox="0 0 68 68" fill="none" xmlns="http://www.w3.org/2000/svg">
<path d="M52.2677 51.7194L50.9965 49.5667L52.2677 51.7194ZM53.6603 49.2796H51.1603H53.6603ZM31.0692 60.6434L29.7281 62.7532L31.0692 60.6434ZM36.9904 60.7405L38.2615 62.8932L36.9904 60.7405ZM5.39492 23.0543L4.1151 20.9068L5.39492 23.0543ZM5.39493 25.4882L4.11511 27.6358L5.39493 25.4882ZM35.4505 41.6707L36.7303 43.8183L35.4505 41.6707ZM32.5495 41.6707L33.8294 39.5231L32.5495 41.6707ZM62.6051 23.0543L63.8849 20.9068L62.6051 23.0543ZM62.6051 25.4882L61.3253 23.3407L62.6051 25.4882ZM17.0498 51.7319L18.3909 49.622H18.3909L17.0498 51.7319ZM35.4505 6.87183L34.1706 9.0194L35.4505 6.87183ZM32.5495 6.87183L33.8294 9.0194L32.5495 6.87183ZM65.4 24.2241C65.4 22.8434 64.2807 21.7241 62.9 21.7241C61.5193 21.7241 60.4 22.8434 60.4 24.2241H65.4ZM60.4 39.5241C60.4 40.9048 61.5193 42.0241 62.9 42.0241C64.2807 42.0241 65.4 40.9048 65.4 39.5241H60.4ZM34.1706 9.0194L61.3253 25.2019L63.8849 20.9068L36.7303 4.72426L34.1706 9.0194ZM61.3253 23.3407L34.1706 39.5231L36.7303 43.8183L63.8849 27.6358L61.3253 23.3407ZM6.67475 25.2019L33.8294 9.0194L31.2697 4.72426L4.1151 20.9068L6.67475 25.2019ZM33.8294 39.5231L17.0162 29.5036L14.4566 33.7987L31.2697 43.8183L33.8294 39.5231ZM17.0162 29.5036L6.67475 23.3407L4.11511 27.6358L14.4566 33.7987L17.0162 29.5036ZM13.2364 31.6511V49.3407H18.2364V31.6511H13.2364ZM15.7087 53.8417L29.7281 62.7532L32.4103 58.5335L18.3909 49.622L15.7087 53.8417ZM38.2615 62.8932L53.5388 53.8721L50.9965 49.5667L35.7192 58.5878L38.2615 62.8932ZM56.1603 49.2796L56.1603 31.6511L51.1603 31.6511L51.1603 49.2796H56.1603ZM53.5388 53.8721C55.1635 52.9127 56.1603 51.1664 56.1603 49.2796H51.1603C51.1603 49.3976 51.098 49.5067 50.9965 49.5667L53.5388 53.8721ZM29.7281 62.7532C32.3199 64.4007 35.617 64.4548 38.2615 62.8932L35.7192 58.5878C34.6938 59.1934 33.4153 59.1724 32.4103 58.5335L29.7281 62.7532ZM4.1151 20.9068C1.56628 22.4257 1.56629 26.1169 4.11511 27.6358L6.67475 23.3407C7.37973 23.7608 7.37974 24.7818 6.67475 25.2019L4.1151 20.9068ZM34.1706 39.5231C34.0655 39.5858 33.9345 39.5858 33.8294 39.5231L31.2697 43.8183C32.9519 44.8208 35.0481 44.8208 36.7303 43.8183L34.1706 39.5231ZM61.3253 25.2019C60.6203 24.7818 60.6203 23.7608 61.3253 23.3407L63.8849 27.6358C66.4337 26.1169 66.4337 22.4257 63.8849 20.9068L61.3253 25.2019ZM13.2364 49.3407C13.2364 51.1651 14.169 52.863 15.7087 53.8417L18.3909 49.622C18.2947 49.5609 18.2364 49.4547 18.2364 49.3407H13.2364ZM36.7303 4.72426C35.0481 3.7218 32.9519 3.72179 31.2697 4.72426L33.8294 9.0194C33.9345 8.95675 34.0655 8.95675 34.1706 9.0194L36.7303 4.72426ZM60.4 24.2241V39.5241H65.4V24.2241H60.4Z" fill="#021167"/>
</svg>
