<svg width="1298" height="824" viewBox="0 0 1298 824" fill="none" xmlns="http://www.w3.org/2000/svg">
<path d="M196.075 154.82C202.056 154.454 210.023 153.892 219.976 153.135C229.929 152.378 239.872 151.51 249.803 150.532C260.618 149.467 270.98 148.335 280.89 147.136C291.02 145.916 298.182 145.099 302.375 144.686C334.598 141.513 359.141 145.225 376.007 155.82C393.092 166.394 402.581 181.281 404.472 200.482C405.254 208.427 404.425 216.977 401.983 226.131C399.741 235.043 395.127 243.631 388.142 251.895C381.355 259.917 371.458 266.909 358.452 272.869C345.666 278.808 329.121 282.777 308.817 284.776L274.387 288.167L273.735 281.546L304.854 278.481C316.993 277.286 325.859 273.405 331.451 266.837C337.265 260.248 340.797 251.989 342.048 242.061C343.519 232.111 343.701 221.508 342.592 210.253C340.528 189.286 336.226 173.888 329.687 164.058C323.148 154.229 313.257 149.966 300.015 151.27C291.849 152.074 286.737 154.471 284.679 158.462C282.841 162.432 282.488 170.155 283.618 181.631L299.527 343.184C300.396 352.012 301.931 358.546 304.131 362.787C306.31 366.806 310.113 369.217 315.54 370.02C320.967 370.822 328.657 370.845 338.611 370.088L339.328 377.371C332.023 377.867 322.621 378.57 311.123 379.48C299.625 380.389 287.586 381.463 275.006 382.702C265.074 383.68 255.264 384.758 245.575 385.935C236.107 387.09 227.3 388.18 219.156 389.205L218.504 382.584C225.302 381.469 230.291 380.086 233.472 378.436C236.872 376.764 238.929 373.887 239.641 369.806C240.574 365.703 240.65 359.679 239.867 351.733L223.697 187.532C222.893 179.366 221.644 173.472 219.951 169.85C218.456 165.987 215.878 163.566 212.216 162.59C208.754 161.371 203.591 160.988 196.727 161.441L196.075 154.82Z" fill="#021678"/>
<path d="M444.436 267.037C461.04 268.01 475.365 271.849 487.413 278.554C499.694 285.05 508.877 295.14 514.962 308.826C521.267 322.525 523.771 340.443 522.473 362.582C521.175 384.721 516.594 402.225 508.731 415.093C501.089 427.974 490.784 437.033 477.814 442.27C465.079 447.3 450.409 449.328 433.805 448.354C417.422 447.394 403.09 443.665 390.808 437.169C378.761 430.465 369.585 420.263 363.279 406.565C356.973 392.866 354.469 374.947 355.767 352.809C357.065 330.67 361.646 313.166 369.509 300.298C377.373 287.43 387.672 278.482 400.407 273.453C413.377 268.215 428.053 266.076 444.436 267.037ZM444.046 273.678C436.298 273.224 429.377 279.483 423.285 292.455C417.427 305.218 413.629 326.433 411.889 356.099C410.15 385.765 411.437 407.389 415.75 420.971C420.298 434.344 426.446 441.258 434.194 441.712C442.164 442.18 449.078 436.032 454.936 423.268C460.807 410.283 464.612 388.958 466.351 359.292C468.09 329.626 466.797 308.113 462.471 294.752C458.158 281.17 452.016 274.146 444.046 273.678Z" fill="#021678"/>
<path d="M639.138 243.417C646.676 243.232 652.703 244.748 657.218 247.965C661.728 250.96 665.044 254.983 667.164 260.033C669.279 264.861 670.396 269.714 670.516 274.592C670.739 283.682 668.258 291.063 663.073 296.736C658.109 302.404 651.416 305.341 642.991 305.547C634.123 305.765 627.312 303.935 622.558 300.059C617.799 295.961 615.336 290.475 615.167 283.602C614.998 276.73 616.301 271.041 619.074 266.536C622.069 262.026 625.746 258.165 630.104 254.952C626.767 254.59 623.564 255.112 620.492 256.519C616.967 257.493 613.682 259.237 610.638 261.752C607.594 264.267 605.004 267.214 602.869 270.594C600.733 273.974 599.049 277.675 597.817 281.698C596.801 285.495 596.342 289.388 596.44 293.379L598.739 387.159C599 397.8 601.505 404.949 606.253 408.603C611.223 412.253 618.918 413.95 629.338 413.694L629.509 420.678C624.405 420.581 616.861 420.544 606.879 420.567C596.892 420.368 586.577 420.399 575.935 420.66C566.402 420.894 556.764 421.352 547.02 422.035C537.492 422.49 530.403 422.886 525.753 423.222L525.581 416.238C532.897 416.059 537.956 414.271 540.756 410.875C543.779 407.473 545.176 401.117 544.947 391.805L542.37 286.718C542.126 276.742 540.505 269.461 537.509 264.876C534.507 260.069 529.238 257.758 521.7 257.943L521.528 250.959C528.639 251.451 535.52 251.615 542.171 251.451C552.148 251.207 561.562 250.643 570.414 249.761C579.482 248.651 587.766 247.228 595.266 245.491L595.934 272.76C598.453 266.931 601.767 261.858 605.876 257.543C610.207 253.222 615.117 249.885 620.605 247.532C626.309 244.952 632.487 243.58 639.138 243.417Z" fill="#021678"/>
<path d="M736.363 258.984L737.692 313.19L773.608 312.309L773.771 318.96L737.856 319.841L741.191 455.855C741.327 461.398 742.422 465.364 744.477 467.754C746.527 469.922 749.547 470.957 753.538 470.859C756.863 470.777 760.273 469.585 763.765 467.281C767.48 464.971 770.824 461.118 773.797 455.721L779.2 458.916C775.21 468.109 769.515 475.569 762.113 481.297C754.932 487.019 745.356 490.027 733.384 490.32C726.068 490.499 719.504 489.662 713.69 487.808C708.104 486.171 703.381 483.513 699.519 479.837C694.522 475.079 691.161 469.172 689.435 462.116C687.925 454.832 687.029 445.426 686.746 433.897L683.982 321.162L657.378 321.814L657.215 315.163L683.819 314.511L682.8 272.942C693.219 272.686 702.728 271.455 711.326 269.247C720.145 267.035 728.491 263.613 736.363 258.984Z" fill="#021678"/>
<path d="M609.202 447.927C617.55 446.77 624.841 446.879 631.077 448.254C637.501 449.379 643.154 451.394 648.034 454.3C651.664 456.259 654.897 459.394 657.733 463.702C660.759 467.761 662.682 472.756 663.504 478.687C664.387 485.057 662.762 491.103 658.629 496.825C654.716 502.517 649.026 505.88 641.557 506.916C633.429 508.042 626.535 506.758 620.873 503.065C615.182 499.152 611.788 493.242 610.692 485.334C609.87 479.403 610.882 473.777 613.727 468.457C616.541 462.918 621.326 458.673 628.082 455.721C627.27 454.714 625.94 454.003 624.092 453.588C622.213 452.953 619.845 452.833 616.99 453.229C613.035 453.777 609.832 454.892 607.378 456.576C604.925 458.259 602.987 460.43 601.565 463.09C599.764 466.25 598.679 470.543 598.312 475.967C598.163 481.361 598.835 489.44 600.327 500.203L605.487 537.437L640.744 532.551L641.657 539.142L606.4 544.027L624.391 673.852C625.883 684.616 629.523 691.5 635.313 694.503C641.072 697.288 648.565 698.04 657.791 696.762L658.75 703.681C652.788 704.284 644.41 705.221 633.616 706.493C623.011 707.515 611.778 708.847 599.915 710.491C591.348 711.679 582.921 713.07 574.635 714.666C566.318 716.043 560.088 717.13 555.945 717.928L554.986 711.009C562.235 710.004 567.059 707.656 569.458 703.966C572.077 700.244 572.747 693.771 571.468 684.545L553.02 551.425L531.932 554.347L531.019 547.757L552.107 544.835C550.311 531.874 549.478 521.019 549.609 512.269C549.929 503.269 551.216 495.591 553.469 489.234C555.912 482.626 559.544 476.526 564.366 470.932C568.56 465.649 574.617 460.892 582.538 456.66C590.649 452.177 599.537 449.266 609.202 447.927Z" fill="#021678"/>
<path d="M756.783 530.339C773.369 531.575 787.633 535.639 799.572 542.533C811.75 549.222 820.772 559.457 826.64 573.237C832.728 587.034 834.949 604.99 833.301 627.105C831.654 649.221 826.797 666.65 818.732 679.392C810.887 692.15 800.44 701.046 787.389 706.078C774.576 710.905 759.876 712.701 743.29 711.466C726.924 710.247 712.653 706.292 700.475 699.603C688.535 692.71 679.521 682.364 673.432 668.568C667.344 654.771 665.123 636.815 666.771 614.7C668.418 592.584 673.275 575.155 681.34 562.413C689.406 549.671 699.845 540.886 712.658 536.059C725.709 531.026 740.417 529.12 756.783 530.339ZM756.288 536.974C748.548 536.397 741.53 542.546 735.233 555.42C729.175 568.089 725.042 589.241 722.834 618.876C720.626 648.511 721.571 670.152 725.67 683.801C730.005 697.244 736.043 704.254 743.784 704.831C751.745 705.424 758.756 699.386 764.814 686.717C770.889 673.826 775.031 652.564 777.238 622.929C779.446 593.294 778.492 571.763 774.378 558.336C770.28 544.688 764.25 537.567 756.288 536.974Z" fill="#021678"/>
<path d="M887.398 431.256L918.859 658.284C920.138 667.51 922.433 673.573 925.746 676.472C929.278 679.341 934.668 680.273 941.917 679.269L942.876 686.188C938.672 686.547 932.271 687.21 923.674 688.178C915.046 688.926 906.228 689.924 897.222 691.172C888.435 692.389 879.459 693.857 870.294 695.575C861.318 697.043 854.539 698.206 849.956 699.065L848.997 692.146C856.246 691.141 861.07 688.793 863.469 685.103C866.088 681.381 866.758 674.908 865.48 665.681L839.452 477.864C838.112 468.199 835.695 461.257 832.2 457.04C828.894 452.573 823.397 450.872 815.709 451.937L814.75 445.017C821.871 444.702 828.726 444.088 835.316 443.175C845.421 441.775 854.821 440.136 863.517 438.259C872.182 436.163 880.142 433.828 887.398 431.256Z" fill="#021678"/>
<path d="M990.802 457.246C1001.22 457.369 1009.29 459.793 1015 464.518C1020.93 469.245 1023.85 476.044 1023.74 484.914C1023.64 493.784 1020.56 500.512 1014.52 505.099C1008.7 509.687 1000.58 511.92 990.158 511.797C979.735 511.674 971.558 509.249 965.626 504.521C959.915 499.797 957.112 492.999 957.217 484.129C957.321 475.259 960.284 468.529 966.105 463.941C972.147 459.354 980.379 457.123 990.802 457.246ZM1019.09 540.749L1017.38 685.776C1017.27 695.089 1018.64 701.426 1021.48 704.786C1024.55 708.149 1029.74 709.874 1037.05 709.96L1036.97 716.946C1032.54 716.672 1026 716.373 1017.35 716.049C1008.71 715.503 999.955 715.178 991.085 715.073C982.215 714.969 973.12 715.083 963.801 715.417C954.707 715.531 947.83 715.672 943.171 715.838L943.253 708.853C950.571 708.94 955.691 707.337 958.613 704.044C961.757 700.755 963.384 694.453 963.494 685.139L964.734 580.028C964.852 570.05 963.497 562.715 960.669 558.024C957.844 553.111 952.662 550.61 945.122 550.521L945.205 543.536C952.293 544.285 959.163 544.699 965.816 544.777C975.795 544.895 985.223 544.674 994.101 544.113C1003.2 543.334 1011.53 542.212 1019.09 540.749Z" fill="#021678"/>
<path d="M1143.41 529.908C1160.04 530.104 1174.53 533.27 1186.88 539.403C1199.45 545.318 1209.09 554.969 1215.81 568.355C1222.75 581.744 1226.09 599.526 1225.83 621.702C1225.57 643.877 1221.81 661.575 1214.55 674.797C1207.52 688.021 1197.65 697.552 1184.94 703.39C1172.46 709.009 1157.9 711.72 1141.26 711.524C1124.86 711.33 1110.36 708.276 1097.79 702.361C1085.44 696.227 1075.8 686.466 1068.86 673.077C1061.92 659.688 1058.58 641.906 1058.85 619.73C1059.11 597.555 1062.87 579.857 1070.12 566.635C1077.37 553.414 1087.24 543.994 1099.73 538.375C1112.44 532.537 1127 529.714 1143.41 529.908ZM1143.33 536.561C1135.57 536.469 1128.95 543.044 1123.47 556.287C1118.21 569.31 1115.41 590.679 1115.06 620.394C1114.71 650.109 1117.01 671.649 1121.95 685.015C1127.12 698.161 1133.58 704.78 1141.34 704.871C1149.33 704.966 1155.95 698.501 1161.2 685.478C1166.46 672.233 1169.26 650.753 1169.61 621.038C1169.96 591.323 1167.67 569.894 1162.72 556.75C1157.78 543.385 1151.31 536.655 1143.33 536.561Z" fill="#021678"/>
<path d="M1180.11 59.4505C1180.18 58.8499 1181.05 58.8499 1181.12 59.4505L1181.72 64.4886C1182.49 70.9942 1187.62 76.1233 1194.12 76.8952L1199.16 77.493C1199.76 77.5643 1199.76 78.4358 1199.16 78.5071L1194.12 79.1049C1187.62 79.8768 1182.49 85.006 1181.72 91.5115L1181.12 96.5496C1181.05 97.1502 1180.18 97.1502 1180.11 96.5496L1179.51 91.5115C1178.74 85.006 1173.61 79.8768 1167.1 79.1049L1162.06 78.5071C1161.46 78.4358 1161.46 77.5643 1162.06 77.493L1167.1 76.8952C1173.61 76.1233 1178.74 70.9942 1179.51 64.4886L1180.11 59.4505Z" fill="#F2994A"/>
<path d="M1229.11 59.4505C1229.18 58.8499 1230.05 58.8499 1230.12 59.4505L1230.72 64.4886C1231.49 70.9942 1236.62 76.1233 1243.12 76.8952L1248.16 77.493C1248.76 77.5643 1248.76 78.4358 1248.16 78.5071L1243.12 79.1049C1236.62 79.8768 1231.49 85.006 1230.72 91.5115L1230.12 96.5496C1230.05 97.1502 1229.18 97.1502 1229.11 96.5496L1228.51 91.5115C1227.74 85.006 1222.61 79.8768 1216.1 79.1049L1211.06 78.5071C1210.46 78.4358 1210.46 77.5643 1211.06 77.493L1216.1 76.8952C1222.61 76.1233 1227.74 70.9942 1228.51 64.4886L1229.11 59.4505Z" fill="#F2994A"/>
<path d="M1278.11 59.4505C1278.18 58.8499 1279.05 58.8499 1279.12 59.4505L1279.72 64.4886C1280.49 70.9942 1285.62 76.1233 1292.12 76.8952L1297.16 77.493C1297.76 77.5643 1297.76 78.4358 1297.16 78.5071L1292.12 79.1049C1285.62 79.8768 1280.49 85.006 1279.72 91.5115L1279.12 96.5496C1279.05 97.1502 1278.18 97.1502 1278.11 96.5496L1277.51 91.5115C1276.74 85.006 1271.61 79.8768 1265.1 79.1049L1260.06 78.5071C1259.46 78.4358 1259.46 77.5643 1260.06 77.493L1265.1 76.8952C1271.61 76.1233 1276.74 70.9942 1277.51 64.4886L1278.11 59.4505Z" fill="#F2994A"/>
<path fill-rule="evenodd" clip-rule="evenodd" d="M245.089 587.11L213.989 578.692L224.632 538.914L255.741 547.301L247.427 516.103L287.128 505.501L295.473 536.691L318.259 513.911L347.317 543.088L324.553 565.89L355.654 574.308L345.01 614.086L313.901 605.699L322.216 636.897L282.515 647.499L274.17 616.309L251.383 639.089L222.326 609.913L245.089 587.11Z" fill="#F2994A"/>
<path d="M47.6132 341L47.6213 382.959L63.686 344.197L47.6366 382.965L77.3116 353.302L47.6481 382.977L86.4161 366.927L47.6545 382.992L89.6132 383L47.6545 383.008L86.4161 399.073L47.6481 383.023L77.3116 412.698L47.6366 383.035L63.686 421.803L47.6213 383.041L47.6132 425L47.6051 383.041L31.5404 421.803L47.5899 383.035L17.9148 412.698L47.5783 383.023L8.81027 399.073L47.5719 383.008L5.61322 383L47.5719 382.992L8.81027 366.927L47.5783 382.977L17.9148 353.302L47.5899 382.965L31.5404 344.197L47.6051 382.959L47.6132 341Z" fill="#F0C3D2" stroke="#951E66"/>
<path d="M26.3562 161.144L29.7807 186.677L55.4694 184.743L29.9367 188.168L31.8703 213.856L28.4457 188.324L2.75703 190.257L28.2898 186.833L26.3562 161.144Z" fill="#021678"/>
<path d="M47.7388 192.896L50.0939 210.455L67.7604 209.126L50.2011 211.481L51.5309 229.147L49.1758 211.588L31.5093 212.918L49.0685 210.563L47.7388 192.896Z" fill="#021678"/>
<path d="M1208.18 485.907L1217.58 511.466L1243.65 503.563L1218.09 512.969L1225.99 539.032L1216.58 513.473L1190.52 521.377L1216.08 511.97L1208.18 485.907Z" fill="#021678"/>
<rect x="63" y="96.4692" width="279.677" height="87.8212" rx="12.1599" transform="rotate(-9.14899 63 96.4692)" fill="#F2994A"/>
<path d="M121.795 110.402C124.609 109.928 126.983 109.967 128.918 110.519C130.887 111.02 132.669 111.707 134.262 112.579C135.223 113.075 135.876 113.052 136.224 112.512C136.607 111.921 136.729 110.695 136.591 108.833L138.062 108.585C138.257 110.263 138.537 112.32 138.903 114.757C139.27 117.195 139.786 120.396 140.454 124.361L138.983 124.609C138.475 122.633 137.904 120.932 137.269 119.504C136.677 118.069 135.943 116.834 135.067 115.797C134.191 114.761 133.038 113.903 131.608 113.223C130.492 112.578 129.279 112.146 127.971 111.927C126.698 111.659 125.422 111.633 124.143 111.848C121.798 112.243 119.927 113.237 118.529 114.831C117.167 116.376 116.175 118.297 115.553 120.593C114.966 122.84 114.679 125.3 114.69 127.973C114.737 130.595 114.979 133.207 115.416 135.808C115.861 138.451 116.516 141.037 117.379 143.567C118.236 146.053 119.309 148.262 120.599 150.193C121.931 152.117 123.515 153.583 125.35 154.589C127.178 155.553 129.265 155.837 131.61 155.443C132.846 155.235 134.026 154.817 135.148 154.19C136.312 153.556 137.317 152.751 138.161 151.776C139.822 150.181 140.8 148.307 141.095 146.153C141.426 143.949 141.461 141.159 141.199 137.783L142.67 137.535C143.366 141.671 143.951 145.014 144.424 147.565C144.89 150.074 145.309 152.173 145.681 153.865L144.21 154.112C143.731 152.307 143.239 151.206 142.734 150.809C142.271 150.405 141.621 150.58 140.783 151.335C139.392 152.709 137.873 153.973 136.226 155.127C134.614 156.231 132.423 157.016 129.651 157.482C125.004 158.264 120.757 158.036 116.91 156.798C113.105 155.553 109.931 153.369 107.389 150.246C104.889 147.115 103.231 143.119 102.413 138.259C101.609 133.484 101.908 129.137 103.31 125.218C104.711 121.3 106.991 118.044 110.15 115.452C113.351 112.853 117.233 111.169 121.795 110.402ZM156.064 100.69L159.658 122.05C160.394 119.91 161.568 118.287 163.18 117.183C164.834 116.072 166.813 115.322 169.115 114.935C170.991 114.619 172.523 114.603 173.71 114.885C174.94 115.16 175.915 115.61 176.634 116.235C177.452 116.93 178.118 117.892 178.632 119.121C179.145 120.35 179.585 122.051 179.951 124.226L182.856 141.493C183.158 143.284 183.639 144.452 184.301 144.999C185.006 145.538 186.061 145.689 187.468 145.452L187.694 146.795C186.877 146.889 185.612 147.058 183.9 147.302C182.222 147.497 180.574 147.73 178.954 148.003C177.248 148.29 175.593 148.612 173.987 148.97C172.374 149.285 171.145 149.536 170.299 149.722L170.073 148.379C171.267 148.178 172.044 147.719 172.406 147C172.767 146.282 172.797 145.027 172.496 143.237L169.074 122.899C168.909 121.919 168.663 121.105 168.335 120.459C167.999 119.77 167.547 119.298 166.978 119.043C166.445 118.738 165.709 118.665 164.771 118.823C163.79 118.988 162.917 119.398 162.15 120.053C161.419 120.658 160.877 121.473 160.523 122.497C160.162 123.478 160.082 124.566 160.283 125.76L163.479 144.754C163.78 146.545 164.219 147.72 164.795 148.281C165.415 148.834 166.3 149.014 167.451 148.82L167.677 150.163C166.902 150.25 165.744 150.401 164.202 150.617C162.653 150.79 161.068 151.012 159.448 151.285C157.742 151.572 156.002 151.909 154.225 152.295C152.484 152.632 151.17 152.897 150.282 153.09L150.056 151.747C151.463 151.511 152.389 151.026 152.836 150.293C153.325 149.553 153.419 148.288 153.118 146.497L146.995 110.108C146.672 108.189 146.158 106.829 145.454 106.026C144.784 105.175 143.703 104.874 142.211 105.125L141.985 103.782C143.371 103.681 144.703 103.522 145.982 103.307C147.944 102.977 149.766 102.604 151.45 102.19C153.127 101.732 154.665 101.232 156.064 100.69ZM206.863 108.584C208.312 108.34 209.517 108.466 210.477 108.962C211.431 109.415 212.182 110.1 212.73 111.016C213.272 111.889 213.622 112.795 213.779 113.733C214.073 115.481 213.799 116.974 212.955 118.212C212.153 119.443 210.943 120.195 209.323 120.468C207.617 120.755 206.252 120.59 205.228 119.973C204.196 119.313 203.569 118.323 203.347 117.001C203.124 115.679 203.218 114.546 203.629 113.6C204.083 112.646 204.685 111.8 205.438 111.059C204.784 111.082 204.18 111.271 203.626 111.627C202.973 111.912 202.387 112.34 201.869 112.909C201.351 113.479 200.933 114.119 200.614 114.83C200.295 115.542 200.072 116.302 199.946 117.113C199.854 117.874 199.873 118.638 200.003 119.405L203.037 137.44C203.381 139.487 204.062 140.797 205.08 141.371C206.14 141.938 207.671 142.053 209.675 141.716L209.901 143.059C208.913 143.181 207.457 143.382 205.531 143.663C203.598 143.9 201.608 144.191 199.562 144.535C197.728 144.844 195.881 145.199 194.019 145.6C192.193 145.951 190.836 146.223 189.948 146.416L189.722 145.073C191.129 144.836 192.056 144.352 192.502 143.619C192.992 142.879 193.086 141.614 192.784 139.823L189.384 119.614C189.061 117.695 188.547 116.335 187.842 115.532C187.13 114.688 186.049 114.387 184.6 114.631L184.374 113.288C185.76 113.187 187.092 113.028 188.371 112.813C190.29 112.49 192.091 112.121 193.775 111.706C195.494 111.242 197.054 110.738 198.453 110.196L199.335 115.44C199.66 114.245 200.16 113.175 200.834 112.229C201.55 111.275 202.405 110.495 203.4 109.89C204.429 109.234 205.584 108.799 206.863 108.584ZM220.425 90.0577C222.429 89.7206 224.061 89.9064 225.32 90.6152C226.622 91.3169 227.416 92.5204 227.703 94.2258C227.99 95.9313 227.633 97.3285 226.633 98.4176C225.675 99.4994 224.194 100.209 222.19 100.546C220.186 100.883 218.533 100.701 217.232 99.9994C215.972 99.2906 215.199 98.0834 214.912 96.378C214.625 94.6726 214.961 93.2789 215.919 92.1971C216.919 91.108 218.422 90.3949 220.425 90.0577ZM228.743 105.099L233.435 132.983C233.737 134.774 234.218 135.942 234.88 136.488C235.584 137.027 236.64 137.179 238.047 136.942L238.273 138.285C237.413 138.386 236.148 138.555 234.478 138.792C232.801 138.986 231.11 139.227 229.405 139.514C227.699 139.801 225.958 140.138 224.182 140.524C222.441 140.861 221.126 141.126 220.238 141.32L220.012 139.976C221.419 139.74 222.346 139.255 222.793 138.522C223.282 137.782 223.376 136.517 223.075 134.726L219.674 114.517C219.351 112.598 218.838 111.238 218.133 110.436C217.421 109.591 216.34 109.291 214.89 109.535L214.664 108.192C216.05 108.09 217.383 107.931 218.662 107.716C220.58 107.393 222.381 107.025 224.065 106.61C225.785 106.145 227.344 105.642 228.743 105.099ZM248.169 101.633C250.045 101.318 251.701 101.258 253.137 101.455C254.573 101.652 255.643 101.888 256.347 102.164C257.997 102.851 258.792 102.104 258.732 99.9218L260.075 99.6959C260.197 100.947 260.385 102.45 260.636 104.205C260.88 105.917 261.246 108.223 261.734 111.123L260.391 111.349C259.955 109.8 259.31 108.308 258.455 106.874C257.642 105.432 256.599 104.314 255.326 103.52C254.045 102.683 252.509 102.416 250.718 102.717C249.567 102.911 248.644 103.417 247.949 104.235C247.296 105.047 247.07 106.049 247.271 107.243C247.486 108.522 248.06 109.587 248.993 110.439C249.925 111.29 251.063 112.063 252.408 112.758C253.795 113.445 255.193 114.196 256.601 115.011C258.138 115.805 259.529 116.645 260.774 117.532C262.055 118.369 263.119 119.351 263.966 120.48C264.849 121.559 265.434 122.951 265.721 124.657C266.044 126.575 265.752 128.356 264.845 130C263.938 131.643 262.614 133.028 260.874 134.153C259.135 135.279 257.114 136.036 254.811 136.423C253.404 136.66 252.143 136.718 251.027 136.599C249.96 136.516 249.05 136.318 248.296 136.007C247.607 135.816 246.988 135.657 246.441 135.53C245.936 135.395 245.442 135.325 244.958 135.319C244.525 135.348 244.195 135.601 243.968 136.077C243.741 136.554 243.6 137.148 243.544 137.858L242.201 138.084C242.057 136.706 241.841 135.032 241.554 133.064C241.266 131.095 240.85 128.491 240.305 125.251L241.648 125.025C242.291 127.284 243.101 129.23 244.077 130.863C245.096 132.49 246.289 133.714 247.655 134.536C249.013 135.316 250.503 135.57 252.123 135.297C252.848 135.175 253.487 134.936 254.041 134.58C254.63 134.174 255.067 133.64 255.35 132.978C255.676 132.31 255.76 131.506 255.602 130.568C255.286 128.692 254.428 127.237 253.026 126.201C251.617 125.123 249.913 123.985 247.913 122.787C246.355 121.865 244.886 120.95 243.506 120.043C242.168 119.128 241.005 118.074 240.015 116.882C239.067 115.682 238.454 114.251 238.174 112.588C237.851 110.669 238.112 108.959 238.955 107.458C239.834 105.907 241.09 104.644 242.724 103.668C244.35 102.649 246.165 101.971 248.169 101.633ZM269.134 85.6105C270.2 85.4312 271.174 85.4865 272.056 85.7766C272.973 86.0168 273.727 86.4599 274.318 87.1058C274.888 87.6238 275.386 88.3729 275.814 89.3531C276.285 90.3261 276.617 91.3882 276.811 92.5394C277.17 94.6712 276.952 96.7683 276.16 98.8308C275.359 100.851 273.898 102.587 271.775 104.041L271.006 102.986C272.071 102.281 272.969 101.363 273.699 100.231C274.465 99.0502 274.861 97.8875 274.888 96.7431C275.049 95.6198 274.92 94.5894 274.499 93.6518C273.669 94.9751 272.359 95.7875 270.569 96.0888C268.991 96.3542 267.637 96.1217 266.505 95.3914C265.367 94.6184 264.658 93.4005 264.378 91.7377C264.12 90.2028 264.423 88.8803 265.289 87.7701C266.19 86.6102 267.472 85.8903 269.134 85.6105ZM293.636 93.9831C295.512 93.6675 297.168 93.6081 298.604 93.8049C300.04 94.0016 301.11 94.2381 301.814 94.5142C303.464 95.2011 304.259 94.4536 304.199 92.2716L305.542 92.0456C305.664 93.2964 305.852 94.7994 306.103 96.5546C306.347 98.2672 306.713 100.573 307.201 103.472L305.858 103.698C305.422 102.15 304.777 100.658 303.922 99.2234C303.109 97.7818 302.066 96.6639 300.792 95.8698C299.512 95.0331 297.976 94.7654 296.185 95.0667C295.034 95.2604 294.111 95.7665 293.416 96.5849C292.763 97.3962 292.537 98.3988 292.738 99.5926C292.953 100.872 293.527 101.937 294.459 102.788C295.392 103.64 296.53 104.413 297.875 105.107C299.262 105.795 300.66 106.546 302.068 107.361C303.605 108.155 304.996 108.995 306.241 109.882C307.522 110.718 308.586 111.701 309.433 112.83C310.316 113.909 310.901 115.301 311.188 117.007C311.511 118.925 311.219 120.706 310.312 122.349C309.405 123.993 308.081 125.377 306.341 126.503C304.602 127.629 302.581 128.385 300.278 128.773C298.871 129.009 297.61 129.068 296.494 128.949C295.427 128.865 294.517 128.668 293.763 128.356C293.074 128.165 292.455 128.006 291.908 127.879C291.403 127.745 290.909 127.675 290.425 127.668C289.992 127.698 289.662 127.95 289.435 128.427C289.208 128.904 289.067 129.497 289.011 130.208L287.668 130.434C287.524 129.055 287.308 127.382 287.021 125.413C286.733 123.445 286.317 120.841 285.772 117.6L287.115 117.374C287.758 119.634 288.568 121.58 289.544 123.213C290.563 124.839 291.755 126.064 293.121 126.886C294.48 127.666 295.97 127.919 297.59 127.647C298.315 127.525 298.954 127.286 299.508 126.929C300.097 126.523 300.534 125.99 300.817 125.328C301.143 124.659 301.227 123.856 301.069 122.918C300.753 121.042 299.895 119.586 298.493 118.551C297.084 117.473 295.38 116.334 293.38 115.136C291.822 114.215 290.353 113.3 288.973 112.392C287.635 111.478 286.471 110.424 285.482 109.231C284.534 108.032 283.921 106.6 283.641 104.938C283.318 103.019 283.579 101.309 284.422 99.8081C285.301 98.2572 286.557 96.9936 288.191 96.0173C289.817 94.9984 291.632 94.3203 293.636 93.9831Z" fill="#0C1FD1"/>
</svg>
