<svg width="70" height="58" viewBox="0 0 70 58" fill="none" xmlns="http://www.w3.org/2000/svg">
<path d="M60.5 41C60.5 42.3807 61.6193 43.5 63 43.5C64.3807 43.5 65.5 42.3807 65.5 41H60.5ZM4.5 41C4.5 42.3807 5.61929 43.5 7 43.5C8.38071 43.5 9.5 42.3807 9.5 41H4.5ZM14 5.5H56V0.5H14V5.5ZM60.5 9.76923V41H65.5V9.76923H60.5ZM9.5 41V9.76923H4.5V41H9.5ZM56 5.5C58.5649 5.5 60.5 7.48973 60.5 9.76923H65.5C65.5 4.57164 61.167 0.5 56 0.5V5.5ZM14 0.5C8.83295 0.5 4.5 4.57164 4.5 9.76923H9.5C9.5 7.48973 11.4351 5.5 14 5.5V0.5ZM7 45.5H63V40.5H7V45.5ZM64.5 47V51H69.5V47H64.5ZM63 52.5H7V57.5H63V52.5ZM5.5 51V47H0.5V51H5.5ZM7 52.5C6.17157 52.5 5.5 51.8284 5.5 51H0.5C0.5 54.5899 3.41015 57.5 7 57.5V52.5ZM64.5 51C64.5 51.8284 63.8284 52.5 63 52.5V57.5C66.5899 57.5 69.5 54.5899 69.5 51H64.5ZM63 45.5C63.8284 45.5 64.5 46.1716 64.5 47H69.5C69.5 43.4101 66.5899 40.5 63 40.5V45.5ZM7 40.5C3.41015 40.5 0.5 43.4101 0.5 47H5.5C5.5 46.1716 6.17157 45.5 7 45.5V40.5Z" fill="#021167"/>
</svg>
