<svg width="25" height="24" viewBox="0 0 25 24" fill="none" xmlns="http://www.w3.org/2000/svg">
<path d="M11.1409 3.17203C11.5218 2.14253 12.978 2.14253 13.3589 3.17203L15.255 8.29616C15.3748 8.61984 15.63 8.87503 15.9536 8.9948L21.0778 10.8909C22.1073 11.2718 22.1073 12.728 21.0778 13.1089L15.9536 15.005C15.63 15.1248 15.3748 15.38 15.255 15.7036L13.3589 20.8278C12.978 21.8573 11.5219 21.8573 11.1409 20.8278L9.2448 15.7036C9.12503 15.38 8.86984 15.1248 8.54617 15.005L3.42203 13.1089C2.39253 12.728 2.39253 11.2719 3.42203 10.8909L8.54616 8.9948C8.86984 8.87503 9.12503 8.61984 9.2448 8.29617L11.1409 3.17203Z" stroke="white" stroke-width="2" stroke-linejoin="round"/>
</svg>
