<svg width="57" height="57" viewBox="0 0 57 57" fill="none" xmlns="http://www.w3.org/2000/svg">
<circle cx="28.5" cy="28.5" r="28.5" fill="url(#paint0_linear_228_1023)"/>
<g clip-path="url(#clip0_228_1023)">
<path d="M41.6313 13H14.3625C13.0562 13 12 14.0313 12 15.3063V42.6875C12 43.9625 13.0562 45 14.3625 45H41.6313C42.9375 45 44 43.9625 44 42.6938V15.3063C44 14.0313 42.9375 13 41.6313 13ZM21.4937 40.2687H16.7438V24.9937H21.4937V40.2687ZM19.1188 22.9125C17.5938 22.9125 16.3625 21.6812 16.3625 20.1625C16.3625 18.6438 17.5938 17.4125 19.1188 17.4125C20.6375 17.4125 21.8687 18.6438 21.8687 20.1625C21.8687 21.675 20.6375 22.9125 19.1188 22.9125ZM39.2687 40.2687H34.525V32.8438C34.525 31.075 34.4937 28.7937 32.0562 28.7937C29.5875 28.7937 29.2125 30.725 29.2125 32.7188V40.2687H24.475V24.9937H29.025V27.0813H29.0875C29.7187 25.8813 31.2688 24.6125 33.575 24.6125C38.3813 24.6125 39.2687 27.775 39.2687 31.8875V40.2687V40.2687Z" fill="white"/>
</g>
<defs>
<linearGradient id="paint0_linear_228_1023" x1="28.5" y1="0" x2="28.5" y2="57" gradientUnits="userSpaceOnUse">
<stop stop-color="#021678"/>
<stop offset="1" stop-color="#4545FF"/>
</linearGradient>
<clipPath id="clip0_228_1023">
<rect width="32" height="32" fill="white" transform="translate(12 13)"/>
</clipPath>
</defs>
</svg>
