<svg width="136" height="38" viewBox="0 0 136 38" fill="none" xmlns="http://www.w3.org/2000/svg">
<path d="M18.493 0.450417C18.5643 -0.150139 19.4357 -0.150139 19.507 0.450417L20.1048 5.48854C20.8767 11.9941 26.0059 17.1233 32.5114 17.8952L37.5495 18.493C38.1502 18.5643 38.1502 19.4357 37.5495 19.507L32.5114 20.1048C26.0059 20.8767 20.8767 26.0059 20.1048 32.5114L19.507 37.5495C19.4357 38.1502 18.5643 38.1502 18.493 37.5495L17.8952 32.5114C17.1233 26.0059 11.9941 20.8767 5.48854 20.1048L0.450417 19.507C-0.150139 19.4357 -0.150139 18.5643 0.450417 18.493L5.48854 17.8952C11.9941 17.1233 17.1233 11.9941 17.8952 5.48854L18.493 0.450417Z" fill="#F2994A"/>
<path d="M67.493 0.450417C67.5643 -0.150139 68.4357 -0.150139 68.507 0.450417L69.1048 5.48854C69.8767 11.9941 75.0059 17.1233 81.5114 17.8952L86.5495 18.493C87.1502 18.5643 87.1502 19.4357 86.5495 19.507L81.5114 20.1048C75.0059 20.8767 69.8767 26.0059 69.1048 32.5114L68.507 37.5495C68.4357 38.1502 67.5643 38.1502 67.493 37.5495L66.8952 32.5114C66.1233 26.0059 60.9941 20.8767 54.4885 20.1048L49.4504 19.507C48.8499 19.4357 48.8499 18.5643 49.4504 18.493L54.4885 17.8952C60.9941 17.1233 66.1233 11.9941 66.8952 5.48854L67.493 0.450417Z" fill="#F2994A"/>
<path d="M116.493 0.450417C116.564 -0.150139 117.436 -0.150139 117.507 0.450417L118.105 5.48854C118.877 11.9941 124.006 17.1233 130.511 17.8952L135.55 18.493C136.15 18.5643 136.15 19.4357 135.55 19.507L130.511 20.1048C124.006 20.8767 118.877 26.0059 118.105 32.5114L117.507 37.5495C117.436 38.1502 116.564 38.1502 116.493 37.5495L115.895 32.5114C115.123 26.0059 109.994 20.8767 103.489 20.1048L98.4504 19.507C97.8499 19.4357 97.8499 18.5643 98.4504 18.493L103.489 17.8952C109.994 17.1233 115.123 11.9941 115.895 5.48854L116.493 0.450417Z" fill="#F2994A"/>
</svg>
