<svg width="57" height="57" viewBox="0 0 57 57" fill="none" xmlns="http://www.w3.org/2000/svg">
<circle cx="28.5" cy="28.5" r="28.5" fill="url(#paint0_linear_228_1027)"/>
<g clip-path="url(#clip0_228_1027)">
<path d="M28.5 15.7912C32.6414 15.7912 33.1318 15.8094 34.7605 15.882C36.2742 15.9486 37.0916 16.2029 37.6365 16.4148C38.357 16.6934 38.8777 17.0324 39.4166 17.5713C39.9615 18.1162 40.2945 18.6309 40.573 19.3514C40.785 19.8963 41.0393 20.7197 41.1059 22.2273C41.1785 23.8621 41.1967 24.3525 41.1967 28.4879C41.1967 32.6293 41.1785 33.1197 41.1059 34.7484C41.0393 36.2621 40.785 37.0795 40.573 37.6244C40.2945 38.3449 39.9555 38.8656 39.4166 39.4045C38.8717 39.9494 38.357 40.2824 37.6365 40.5609C37.0916 40.7729 36.2682 41.0271 34.7605 41.0937C33.1258 41.1664 32.6354 41.1846 28.5 41.1846C24.3586 41.1846 23.8682 41.1664 22.2395 41.0937C20.7258 41.0271 19.9084 40.7729 19.3635 40.5609C18.643 40.2824 18.1223 39.9434 17.5834 39.4045C17.0385 38.8596 16.7055 38.3449 16.427 37.6244C16.215 37.0795 15.9607 36.2561 15.8941 34.7484C15.8215 33.1137 15.8033 32.6232 15.8033 28.4879C15.8033 24.3465 15.8215 23.8561 15.8941 22.2273C15.9607 20.7137 16.215 19.8963 16.427 19.3514C16.7055 18.6309 17.0445 18.1102 17.5834 17.5713C18.1283 17.0264 18.643 16.6934 19.3635 16.4148C19.9084 16.2029 20.7318 15.9486 22.2395 15.882C23.8682 15.8094 24.3586 15.7912 28.5 15.7912ZM28.5 13C24.292 13 23.7652 13.0182 22.1123 13.0908C20.4654 13.1635 19.3332 13.4299 18.3523 13.8113C17.3291 14.2109 16.4633 14.7377 15.6035 15.6035C14.7377 16.4633 14.2109 17.3291 13.8113 18.3463C13.4299 19.3332 13.1635 20.4594 13.0908 22.1062C13.0182 23.7652 13 24.292 13 28.5C13 32.708 13.0182 33.2348 13.0908 34.8877C13.1635 36.5346 13.4299 37.6668 13.8113 38.6477C14.2109 39.6709 14.7377 40.5367 15.6035 41.3965C16.4633 42.2562 17.3291 42.7891 18.3463 43.1826C19.3332 43.5641 20.4594 43.8305 22.1062 43.9031C23.7592 43.9758 24.2859 43.9939 28.4939 43.9939C32.702 43.9939 33.2287 43.9758 34.8816 43.9031C36.5285 43.8305 37.6607 43.5641 38.6416 43.1826C39.6588 42.7891 40.5246 42.2562 41.3844 41.3965C42.2441 40.5367 42.777 39.6709 43.1705 38.6537C43.552 37.6668 43.8184 36.5406 43.891 34.8938C43.9637 33.2408 43.9818 32.7141 43.9818 28.5061C43.9818 24.298 43.9637 23.7713 43.891 22.1184C43.8184 20.4715 43.552 19.3393 43.1705 18.3584C42.7891 17.3291 42.2623 16.4633 41.3965 15.6035C40.5367 14.7437 39.6709 14.2109 38.6537 13.8174C37.6668 13.4359 36.5406 13.1695 34.8938 13.0969C33.2348 13.0182 32.708 13 28.5 13Z" fill="white"/>
<path d="M28.5 20.5381C24.1043 20.5381 20.5381 24.1043 20.5381 28.5C20.5381 32.8957 24.1043 36.4619 28.5 36.4619C32.8957 36.4619 36.4619 32.8957 36.4619 28.5C36.4619 24.1043 32.8957 20.5381 28.5 20.5381ZM28.5 33.6646C25.6482 33.6646 23.3354 31.3518 23.3354 28.5C23.3354 25.6482 25.6482 23.3354 28.5 23.3354C31.3518 23.3354 33.6646 25.6482 33.6646 28.5C33.6646 31.3518 31.3518 33.6646 28.5 33.6646Z" fill="white"/>
<path d="M38.6355 20.2232C38.6355 21.2525 37.8 22.082 36.7768 22.082C35.7475 22.082 34.918 21.2464 34.918 20.2232C34.918 19.1939 35.7535 18.3644 36.7768 18.3644C37.8 18.3644 38.6355 19.1999 38.6355 20.2232Z" fill="white"/>
</g>
<defs>
<linearGradient id="paint0_linear_228_1027" x1="28.5" y1="0" x2="28.5" y2="57" gradientUnits="userSpaceOnUse">
<stop stop-color="#021678"/>
<stop offset="1" stop-color="#4545FF"/>
</linearGradient>
<clipPath id="clip0_228_1027">
<rect width="31" height="31" fill="white" transform="translate(13 13)"/>
</clipPath>
</defs>
</svg>
