<svg width="524" height="85" viewBox="0 0 524 85" fill="none" xmlns="http://www.w3.org/2000/svg">
<g clip-path="url(#clip0_40_212)">
<path d="M71.3899 0.437256H15.6278C7.18353 0.437256 0.338135 7.28265 0.338135 15.7269V69.3305C0.338135 77.7747 7.18353 84.6201 15.6278 84.6201H71.3899C79.8342 84.6201 86.6796 77.7747 86.6796 69.3305V15.7269C86.6796 7.28265 79.8342 0.437256 71.3899 0.437256Z" fill="#001E36"/>
<path d="M19.78 59.4717V22.4604C19.78 22.1906 19.896 22.0549 20.1277 22.0549C20.7448 22.0549 21.3082 22.0459 22.1581 22.0259C23.0071 22.007 23.9241 21.9877 24.9093 21.9681C25.8941 21.949 26.9367 21.9297 28.0371 21.9101C29.1375 21.8911 30.2283 21.8815 31.3095 21.8811C34.2436 21.8811 36.7149 22.2479 38.7234 22.9816C40.5351 23.5945 42.1874 24.6036 43.5599 25.9356C44.7233 27.0901 45.6224 28.4833 46.1951 30.019C46.737 31.5136 47.0116 33.0918 47.0062 34.6816C47.0062 37.7713 46.2918 40.3198 44.8631 42.3271C43.4249 44.3427 41.4034 45.869 39.071 46.7001C36.6383 47.6079 33.935 47.9157 30.9621 47.9157C30.1123 47.9157 29.5137 47.9061 29.1665 47.8867C28.819 47.8677 28.2978 47.858 27.6028 47.8578V59.4138C27.6129 59.4846 27.6063 59.5568 27.5837 59.6246C27.5611 59.6925 27.523 59.7542 27.4724 59.8047C27.4218 59.8553 27.3601 59.8934 27.2923 59.916C27.2244 59.9387 27.1522 59.9452 27.0814 59.9351H20.1855C19.9149 59.9351 19.78 59.7812 19.78 59.4717ZM27.6027 29.0054V41.077C28.1041 41.1159 28.5674 41.1352 28.9927 41.1348H30.9041C32.3105 41.1302 33.7076 40.9071 35.0455 40.4737C36.193 40.1329 37.2184 39.4694 37.9995 38.5623C38.7523 37.6745 39.1289 36.4389 39.129 34.8554C39.1595 33.735 38.868 32.6294 38.2889 31.6697C37.6803 30.7418 36.8005 30.0239 35.7694 29.6136C34.4231 29.0902 32.985 28.844 31.5412 28.8896C30.6144 28.8896 29.7939 28.8992 29.0797 28.9185C28.3647 28.9384 27.8724 28.9674 27.6027 29.0054V29.0054Z" fill="#31A8FF"/>
<path d="M69.4011 38.8816C68.3126 38.3223 67.1532 37.9131 65.9548 37.6652C64.6342 37.3622 63.2841 37.2068 61.9293 37.2018C61.1964 37.1819 60.4646 37.2698 59.7573 37.4625C59.307 37.5628 58.9069 37.8193 58.6277 38.1865C58.439 38.4802 58.3385 38.822 58.3383 39.1712C58.3488 39.5099 58.471 39.8357 58.6857 40.0979C59.024 40.4936 59.4374 40.8184 59.902 41.0535C60.7278 41.4983 61.5788 41.8947 62.4505 42.2409C64.3944 42.8916 66.2519 43.7766 67.9819 44.8763C69.1605 45.6202 70.1358 46.6452 70.8201 47.8592C71.3955 49.0088 71.6837 50.2808 71.66 51.5662C71.6946 53.2635 71.2096 54.9308 70.2699 56.3447C69.2639 57.7799 67.8665 58.8957 66.2443 59.5592C64.4868 60.3312 62.3148 60.7174 59.7283 60.7177C58.0852 60.7343 56.4448 60.579 54.834 60.2543C53.5648 60.0216 52.3294 59.6325 51.156 59.0959C51.0293 59.0305 50.924 58.9304 50.8522 58.8073C50.7804 58.6842 50.7451 58.5432 50.7505 58.4008V52.1454C50.7436 52.0841 50.7534 52.0221 50.7789 51.966C50.8044 51.9099 50.8447 51.8618 50.8955 51.8268C50.9452 51.7987 51.0023 51.7864 51.0592 51.7916C51.1161 51.7967 51.1701 51.8191 51.2139 51.8558C52.5997 52.6729 54.1044 53.2689 55.6738 53.6223C57.0571 53.9691 58.476 54.1537 59.902 54.1726C61.2532 54.1726 62.2475 53.9988 62.8849 53.6513C63.1728 53.5196 63.4162 53.3072 63.5859 53.0399C63.7555 52.7726 63.844 52.4619 63.8407 52.1454C63.8407 51.644 63.5511 51.1614 62.9719 50.6974C62.3927 50.234 61.215 49.6741 59.4386 49.0176C57.62 48.3846 55.8956 47.5078 54.3126 46.4112C53.1804 45.6238 52.2482 44.5824 51.5904 43.3703C51.0208 42.229 50.7328 40.9679 50.7506 39.6924C50.7473 38.1599 51.1683 36.6564 51.9668 35.3484C52.8774 33.908 54.1848 32.7615 55.7318 32.0469C57.4305 31.198 59.5542 30.7733 62.1031 30.7726C63.5958 30.7606 65.0871 30.8672 66.563 31.0912C67.6317 31.2268 68.6766 31.5094 69.6679 31.931C69.7465 31.9536 69.8188 31.9941 69.8791 32.0494C69.9394 32.1047 69.9861 32.1732 70.0154 32.2496C70.0545 32.3911 70.074 32.5372 70.0733 32.684V38.534C70.0773 38.6021 70.0634 38.67 70.0329 38.731C70.0024 38.792 69.9565 38.8439 69.8996 38.8816C69.8222 38.9201 69.7368 38.9401 69.6504 38.9401C69.5639 38.9401 69.4785 38.9201 69.4011 38.8816Z" fill="#31A8FF"/>
</g>
<g clip-path="url(#clip1_40_212)">
<path d="M181.814 0.437256H126.052C117.608 0.437256 110.762 7.28265 110.762 15.7269V69.3305C110.762 77.7747 117.608 84.6201 126.052 84.6201H181.814C190.258 84.6201 197.104 77.7747 197.104 69.3305V15.7269C197.104 7.28265 190.258 0.437256 181.814 0.437256Z" fill="#00005B"/>
<path d="M145.448 50.8029H132.068L129.346 59.2755C129.309 59.4297 129.219 59.5662 129.093 59.6613C128.966 59.7565 128.81 59.8044 128.651 59.7968H121.874C121.488 59.7968 121.353 59.5844 121.469 59.1597L133.053 25.9352C133.169 25.5877 133.285 25.248 133.401 24.8036C133.552 24.0309 133.63 23.2454 133.632 22.4579C133.625 22.4028 133.63 22.3467 133.647 22.2939C133.665 22.2412 133.694 22.1932 133.734 22.1539C133.773 22.1145 133.821 22.0849 133.874 22.0673C133.927 22.0497 133.983 22.0446 134.038 22.0524H143.247C143.517 22.0524 143.671 22.149 143.711 22.3421L156.859 59.2175C156.974 59.604 156.859 59.7971 156.511 59.7968H148.981C148.852 59.8111 148.722 59.7779 148.615 59.7033C148.509 59.6287 148.433 59.5178 148.402 59.3914L145.448 50.8029ZM134.154 43.659H143.305C143.074 42.887 142.803 42.0182 142.494 41.0525C142.185 40.0878 141.856 39.0548 141.51 37.9537C141.162 36.8533 140.815 35.7528 140.467 34.6523C140.12 33.5518 139.801 32.4899 139.511 31.4666C139.222 30.444 138.961 29.5076 138.729 28.6575H138.671C138.346 30.2218 137.94 31.7684 137.455 33.2911C136.914 35.0288 136.364 36.805 135.804 38.6198C135.244 40.4353 134.694 42.115 134.154 43.659Z" fill="#9999FF"/>
<path d="M178.174 47.5049H166.763C166.903 48.6339 167.278 49.721 167.864 50.6961C168.512 51.6617 169.428 52.4167 170.499 52.8681C171.951 53.4965 173.522 53.8043 175.104 53.7706C176.359 53.7466 177.609 53.6093 178.84 53.3605C179.94 53.2119 181.019 52.9308 182.052 52.5231C182.244 52.3694 182.341 52.4653 182.341 52.8128V58.3153C182.351 58.4652 182.321 58.615 182.254 58.7497C182.188 58.855 182.099 58.944 181.994 59.0103C180.848 59.5178 179.642 59.877 178.405 60.0793C176.725 60.3948 175.018 60.5404 173.308 60.5137C170.566 60.5137 168.269 60.0889 166.416 59.2394C164.664 58.4678 163.117 57.2976 161.898 55.8221C160.759 54.4318 159.912 52.8263 159.407 51.1015C158.907 49.3991 158.654 47.634 158.654 45.8597C158.649 43.9224 158.952 41.9966 159.552 40.1545C160.13 38.3577 161.044 36.687 162.246 35.2313C163.43 33.7925 164.912 32.6268 166.59 31.8139C168.288 30.984 170.296 30.6863 172.613 30.6863C174.535 30.6377 176.443 31.0135 178.203 31.7867C179.682 32.4178 180.985 33.4015 181.996 34.652C182.945 35.8766 183.671 37.2589 184.139 38.7355C184.596 40.1584 184.83 41.6431 184.835 43.1375C184.835 43.9872 184.806 44.7595 184.748 45.4543C184.69 46.1493 184.642 46.6513 184.603 46.9602C184.588 47.0879 184.526 47.2056 184.43 47.2911C184.334 47.3765 184.21 47.4236 184.082 47.4236C183.85 47.4236 183.454 47.4526 182.894 47.5105C182.334 47.5684 181.639 47.607 180.809 47.6263C179.978 47.6462 179.1 47.5049 178.174 47.5049ZM166.763 42.2285H174.351C175.278 42.2285 175.963 42.2188 176.407 42.1995C176.704 42.1698 176.991 42.0747 177.247 41.9211V41.5735C177.235 41.1206 177.157 40.6717 177.015 40.2414C176.703 39.2532 176.075 38.395 175.227 37.7986C174.379 37.2021 173.359 36.9005 172.324 36.9399C171.349 36.881 170.378 37.107 169.53 37.5904C168.681 38.0738 167.992 38.7936 167.545 39.6622C167.148 40.47 166.884 41.3366 166.763 42.2285Z" fill="#9999FF"/>
</g>
<g clip-path="url(#clip2_40_212)">
<path d="M292.239 0.437256H236.476C228.032 0.437256 221.187 7.28265 221.187 15.7269V69.3305C221.187 77.7747 228.032 84.6201 236.476 84.6201H292.239C300.683 84.6201 307.528 77.7747 307.528 69.3305V15.7269C307.528 7.28265 300.683 0.437256 292.239 0.437256Z" fill="#330000"/>
<path d="M263.027 50.9569H249.647L246.925 59.4133C246.888 59.5675 246.798 59.7039 246.671 59.7991C246.544 59.8942 246.388 59.9422 246.23 59.9346H239.453C239.067 59.9346 238.931 59.7222 239.048 59.2975L250.632 25.9351C250.748 25.5877 250.863 25.1919 250.979 24.7477C251.131 23.975 251.208 23.1895 251.211 22.402C251.203 22.3469 251.208 22.2908 251.226 22.238C251.243 22.1852 251.273 22.1373 251.312 22.0979C251.352 22.0586 251.4 22.0289 251.452 22.0113C251.505 21.9937 251.561 21.9887 251.616 21.9965H260.826C261.095 21.9965 261.25 22.0931 261.289 22.2862L274.437 59.3553C274.553 59.7418 274.437 59.9349 274.09 59.9346H266.56C266.43 59.9489 266.3 59.9157 266.194 59.8411C266.087 59.7664 266.011 59.6556 265.981 59.5292L263.027 50.9569ZM251.732 43.6589H260.884C260.652 42.8869 260.382 42.0181 260.073 41.0524C259.763 40.0877 259.435 39.0548 259.088 37.9536C258.741 36.8532 258.393 35.7527 258.045 34.6522C257.698 33.5517 257.379 32.4899 257.09 31.4665C256.8 30.4439 256.54 29.5075 256.308 28.6574H256.25C255.924 30.2217 255.518 31.7683 255.034 33.291C254.492 35.0287 253.942 36.8049 253.383 38.6197C252.823 40.4352 252.272 42.1149 251.732 43.6589H251.732Z" fill="#FF9A00"/>
<path d="M282.256 28.1365C281.665 28.1602 281.076 28.0589 280.527 27.8394C279.978 27.6198 279.482 27.2868 279.07 26.8622C278.66 26.4192 278.341 25.8995 278.132 25.3329C277.924 24.7663 277.829 24.164 277.854 23.5607C277.833 22.9634 277.938 22.3683 278.162 21.8144C278.387 21.2605 278.726 20.7602 279.157 20.3461C279.584 19.9364 280.088 19.6153 280.639 19.4016C281.191 19.1878 281.78 19.0856 282.371 19.1008C283.762 19.1008 284.853 19.5159 285.644 20.3461C286.044 20.7776 286.354 21.2836 286.558 21.8352C286.762 22.3868 286.855 22.9732 286.831 23.5607C286.856 24.1664 286.758 24.7708 286.544 25.3379C286.33 25.905 286.004 26.4234 285.586 26.8622C285.149 27.293 284.627 27.6287 284.054 27.848C283.481 28.0673 282.869 28.1655 282.256 28.1365ZM278.259 59.3557V31.6696C278.259 31.3221 278.413 31.1483 278.722 31.1483H285.847C286.155 31.1483 286.31 31.322 286.31 31.6696V59.3557C286.31 59.7421 286.156 59.9352 285.847 59.9349H278.78C278.433 59.9349 278.259 59.7418 278.259 59.3557Z" fill="#FF9A00"/>
</g>
<g clip-path="url(#clip3_40_212)">
<path d="M346.901 0.437256H402.663C411.117 0.437256 417.953 7.27262 417.953 15.7269V69.3305C417.953 77.7848 411.117 84.6201 402.663 84.6201H346.901C338.447 84.6201 331.611 77.7848 331.611 69.3305V15.7269C331.611 7.27262 338.447 0.437256 346.901 0.437256Z" fill="#00005B"/>
<path d="M352.117 59.4732V22.4544C352.117 22.2025 352.225 22.0586 352.477 22.0586C353.088 22.0586 353.664 22.0586 354.492 22.0227C355.355 21.9867 356.254 21.9867 357.226 21.9507C358.197 21.9147 359.24 21.9147 360.356 21.8787C361.471 21.8428 362.55 21.8428 363.629 21.8428C366.579 21.8428 369.026 22.2025 371.04 22.958C372.839 23.5696 374.494 24.5769 375.861 25.908C377.012 27.0592 377.912 28.4623 378.487 30.0092C379.027 31.5202 379.315 33.0672 379.315 34.6861C379.315 37.78 378.595 40.3342 377.156 42.3489C375.717 44.3635 373.702 45.8745 371.364 46.7379C368.918 47.6373 366.22 47.9611 363.27 47.9611C362.406 47.9611 361.831 47.9611 361.471 47.9251C361.111 47.8891 360.607 47.8891 359.924 47.8891V59.4373C359.96 59.6891 359.78 59.9049 359.528 59.9409C359.492 59.9409 359.456 59.9409 359.384 59.9409H352.549C352.261 59.9409 352.117 59.797 352.117 59.4732ZM359.96 29.0019V41.0897C360.463 41.1257 360.931 41.1617 361.363 41.1617H363.27C364.673 41.1617 366.076 40.9458 367.407 40.5141C368.558 40.1903 369.565 39.5068 370.357 38.6074C371.112 37.708 371.472 36.4848 371.472 34.9019C371.508 33.7867 371.22 32.6714 370.645 31.7001C370.033 30.7647 369.17 30.0452 368.126 29.6495C366.795 29.1098 365.356 28.894 363.881 28.93C362.946 28.93 362.118 28.93 361.435 28.9659C360.715 28.93 360.212 28.9659 359.96 29.0019Z" fill="#9999FF"/>
<path d="M384.351 31.0886H390.647C391.007 31.0886 391.295 31.3404 391.403 31.6642C391.51 31.952 391.582 32.2398 391.618 32.5636C391.69 32.9233 391.762 33.3191 391.798 33.6788C391.834 34.0746 391.87 34.5063 391.87 34.9739C392.949 33.7148 394.245 32.6715 395.72 31.88C397.374 30.9447 399.281 30.477 401.188 30.477C401.44 30.441 401.656 30.6209 401.692 30.8727C401.692 30.9087 401.692 30.9447 401.692 31.0166V38.0319C401.692 38.3197 401.512 38.4276 401.116 38.4276C399.821 38.3916 398.49 38.4996 397.231 38.7874C396.187 39.0032 395.18 39.327 394.209 39.7587C393.525 40.0825 392.878 40.5142 392.374 41.0898V59.4373C392.374 59.7971 392.23 59.941 391.906 59.941H384.819C384.531 59.977 384.279 59.7971 384.243 59.5093C384.243 59.4733 384.243 59.4014 384.243 59.3654V39.4349C384.243 38.5715 384.243 37.6721 384.207 36.7367C384.171 35.8014 384.171 34.866 384.135 33.9307C384.135 33.1032 384.063 32.3118 383.992 31.4843C383.956 31.3044 384.063 31.1246 384.243 31.0886C384.243 31.0526 384.315 31.0526 384.351 31.0886Z" fill="#9999FF"/>
</g>
<g clip-path="url(#clip4_40_212)">
<path d="M456.426 3.35523H508.91C510.8 3.3534 512.672 3.73393 514.419 4.47502C516.166 5.21611 517.753 6.30323 519.089 7.67416C520.426 9.04508 521.486 10.6729 522.209 12.4644C522.931 14.256 523.302 16.1761 523.3 18.1149V69.8605C523.302 71.7992 522.931 73.7193 522.209 75.5109C521.486 77.3024 520.426 78.9303 519.089 80.3012C517.753 81.6721 516.166 82.7592 514.419 83.5003C512.672 84.2414 510.8 84.6219 508.91 84.6201H456.426C454.536 84.6219 452.664 84.2414 450.917 83.5003C449.17 82.7592 447.583 81.6721 446.246 80.3012C444.91 78.9303 443.85 77.3024 443.127 75.5109C442.405 73.7193 442.034 71.7992 442.035 69.8605V18.1149C442.034 16.1761 442.405 14.256 443.127 12.4644C443.85 10.6729 444.91 9.04508 446.246 7.67416C447.583 6.30323 449.17 5.21611 450.917 4.47502C452.664 3.73393 454.536 3.3534 456.426 3.35523Z" fill="#000B1D"/>
<path d="M474.88 68.7737C479.555 68.7737 483.345 64.9837 483.345 60.3086V51.8435H474.88C470.205 51.8435 466.415 55.6335 466.415 60.3086C466.415 64.9837 470.205 68.7737 474.88 68.7737Z" fill="#0ACF83"/>
<path d="M466.415 43.3784C466.415 38.7033 470.205 34.9133 474.88 34.9133H483.345V51.8435H474.88C470.205 51.8435 466.415 48.0536 466.415 43.3784Z" fill="#A259FF"/>
<path d="M466.415 26.4482C466.415 21.7731 470.205 17.9832 474.88 17.9832H483.345V34.9133H474.88C470.205 34.9133 466.415 31.1234 466.415 26.4482Z" fill="#F24E1E"/>
<path d="M483.345 17.9832H491.81C496.486 17.9832 500.276 21.7731 500.276 26.4482C500.276 31.1234 496.486 34.9133 491.81 34.9133H483.345V17.9832Z" fill="#FF7262"/>
<path d="M500.276 43.3784C500.276 48.0536 496.486 51.8435 491.81 51.8435C487.135 51.8435 483.345 48.0536 483.345 43.3784C483.345 38.7033 487.135 34.9133 491.81 34.9133C496.486 34.9133 500.276 38.7033 500.276 43.3784Z" fill="#1ABCFE"/>
</g>
<defs>
<clipPath id="clip0_40_212">
<rect width="86.3414" height="84.1829" fill="white" transform="translate(0.338135 0.437256)"/>
</clipPath>
<clipPath id="clip1_40_212">
<rect width="86.3414" height="84.1829" fill="white" transform="translate(110.762 0.437256)"/>
</clipPath>
<clipPath id="clip2_40_212">
<rect width="86.3414" height="84.1829" fill="white" transform="translate(221.187 0.437256)"/>
</clipPath>
<clipPath id="clip3_40_212">
<rect width="86.3414" height="84.1829" fill="white" transform="translate(331.611 0.437256)"/>
</clipPath>
<clipPath id="clip4_40_212">
<rect width="81.2649" height="81.2649" fill="white" transform="translate(442.035 3.35522)"/>
</clipPath>
</defs>
</svg>
